<?xml version="1.0" encoding="utf-8"?>
<!-- Generator: Adobe Illustrator 24.2.3, SVG Export Plug-In . SVG Version: 6.00 Build 0)  -->
<svg version="1.1" id="Capa_1" xmlns="http://www.w3.org/2000/svg" xmlns:xlink="http://www.w3.org/1999/xlink" x="0px" y="0px"
	 viewBox="0 0 488.9 488.9" style="enable-background:new 0 0 488.9 488.9;" xml:space="preserve">
<style type="text/css">
	.st0{fill:#7F7F7F;}
</style>
<g>
	<path class="st0" d="M244.4,98.7C151,98.7,66.3,149.8,3.8,232.8c-5.1,6.8-5.1,16.3,0,23.1C66.3,339,151,390.1,244.4,390.1
		S422.5,339,485,256c5.1-6.8,5.1-16.3,0-23.1C422.5,149.8,337.8,98.7,244.4,98.7z M251.1,347c-62,3.9-113.2-47.2-109.3-109.3
		c3.2-51.2,44.7-92.7,95.9-95.9c62-3.9,113.2,47.2,109.3,109.3C343.7,302.2,302.2,343.7,251.1,347z M248,299.6
		c-33.4,2.1-61-25.4-58.8-58.8c1.7-27.6,24.1-49.9,51.7-51.7c33.4-2.1,61,25.4,58.8,58.8C297.9,275.6,275.5,297.9,248,299.6z"/>
</g>
</svg>
